<svg width="119" height="24" viewBox="0 0 119 24" fill="none" xmlns="http://www.w3.org/2000/svg">
<path d="M0 23H116.5L94.5 1" stroke="#172BFF" stroke-width="2"/>
<path d="M7.4559 9.62662V17.5H6.71641L2.13811 11.0077H2.07286V17.5H1.30074V9.62662H2.05111L6.62941 16.1298H6.69466V9.62662H7.4559ZM12.8898 17.5V9.62662H17.5008V10.3226H13.662V13.2153H17.2615V13.9004H13.662V16.804H17.5769V17.5H12.8898ZM22.913 9.62662L25.0444 13.0087H25.0988L27.252 9.62662H28.1655L25.6425 13.5633L28.1655 17.5H27.252L25.0988 14.1614H25.0444L22.9021 17.5H21.9886L24.5551 13.5633L21.9886 9.62662H22.913ZM32.4141 10.3226V9.62662H38.1669V10.3226H35.6874V17.5H34.9044V10.3226H32.4141Z" fill="#172BFF"/>
</svg>
