<svg width="120" height="24" viewBox="0 0 120 24" fill="none" xmlns="http://www.w3.org/2000/svg">
<path d="M119.5 23H3L25 1" stroke="#172BFF" stroke-width="2"/>
<path d="M81.1376 17.5V9.62662H83.8237C85.3788 9.62662 86.1509 10.5075 86.1509 11.6928C86.1509 12.6716 85.5963 13.2153 84.8894 13.4002V13.4654C85.6616 13.5198 86.4663 14.2267 86.4663 15.4338C86.4663 16.6191 85.6833 17.5 83.9651 17.5H81.1376ZM83.9542 16.804C85.1613 16.804 85.7159 16.2168 85.7159 15.4229C85.7159 14.542 85.0308 13.8352 83.9868 13.8352H81.9097V16.804H83.9542ZM83.8672 13.1609C84.7807 13.1609 85.4114 12.5519 85.4114 11.6928C85.4114 10.8881 84.8786 10.3226 83.8128 10.3226H81.9097V13.1609H83.8672ZM91.6284 17.5H90.8127L93.6728 9.62662H94.5102L97.3703 17.5H96.5547L95.7282 15.1619H92.4548L91.6284 17.5ZM92.705 14.4768H95.4889L94.1187 10.6271H94.0643L92.705 14.4768ZM107.132 12.0952C106.915 11.0186 105.98 10.2465 104.783 10.2465C103.304 10.2465 102.119 11.4101 102.119 13.5633C102.119 15.7165 103.304 16.8801 104.783 16.8801C105.98 16.8801 106.915 16.108 107.132 15.0314H107.915C107.654 16.4995 106.447 17.6087 104.783 17.6087C102.782 17.6087 101.358 16.0319 101.358 13.5633C101.358 11.0947 102.782 9.51787 104.783 9.51787C106.447 9.51787 107.644 10.6054 107.915 12.0952H107.132ZM112.947 17.5V9.62662H113.719V13.8026H113.795L117.58 9.62662H118.591L115.242 13.2479L118.569 17.5H117.623L114.763 13.7917L113.719 14.9553V17.5H112.947Z" fill="#172BFF"/>
</svg>
